<svg version="1" xmlns="http://www.w3.org/2000/svg" width="682.667" height="682.667" viewBox="0 0 512.000000 512.000000"><path d="M238.5 32c-72.1 6.4-135.4 45-173.3 105.6-43.4 69.7-45 160.2-3.8 230.6 37.2 63.8 100 104.3 173.5 111.9 13.9 1.4 41.5.7 55.6-1.6 53.8-8.4 103-36.1 137.7-77.5 26.4-31.5 44-70 50.3-110.5 2.3-14.1 3-41.7 1.6-55.6-10.8-104.8-89.9-187.1-193.6-201.4-13.5-1.9-35.8-2.5-48-1.5zM206 166.8c6.9 3.4 9.9 12.1 6.9 19.9-.5 1.5-16.2 18-34.7 36.6L144.5 257l33.2 33.3c18.2 18.2 33.8 34.6 34.7 36.4 3.4 6.9 1 15.2-5.6 19.4-4.3 2.6-13.3 2.3-16.9-.7-1.3-1.1-20-19.7-41.6-41.4-34.4-34.8-39.2-40-39.8-43.3-1.7-8.8-1.5-8.9 41.8-52.6 22.1-22.2 41.6-40.9 43.2-41.7 4.1-1.8 8.4-1.7 12.5.4zm116.6 1.4c1.9 1.4 20.7 20.1 41.9 41.5 41.6 42.3 41.7 42.4 39.4 50.6-1.5 5.5-7.1 11.7-46.5 50.9-38.4 38.2-38.3 38.1-46.5 36.4-9.1-1.8-14.4-12.2-10.6-20.8.7-1.5 16.3-17.9 34.6-36.3l33.5-33.5-33.7-33.8c-38.9-39.1-39.5-39.9-34.6-49.9 4-8.3 14.6-10.7 22.5-5.1z"/></svg>