<?xml version="1.0" standalone="no"?>
<!DOCTYPE svg PUBLIC "-//W3C//DTD SVG 20010904//EN"
 "http://www.w3.org/TR/2001/REC-SVG-20010904/DTD/svg10.dtd">
<svg version="1.0" xmlns="http://www.w3.org/2000/svg"
 width="512.000000pt" height="512.000000pt" viewBox="0 0 512.000000 512.000000"
 preserveAspectRatio="xMidYMid meet">
<metadata>
Created by potrace 1.11, written by Peter Selinger 2001-2013
</metadata>
<g transform="translate(0.000000,512.000000) scale(0.100000,-0.100000)"
fill="#000000" stroke="none">
<path d="M2385 4800 c-721 -64 -1354 -450 -1733 -1056 -434 -697 -450 -1602
-38 -2306 372 -638 1000 -1043 1735 -1119 139 -14 415 -7 556 16 538 84 1030
361 1377 775 264 315 440 700 503 1105 23 141 30 417 16 556 -108 1048 -899
1871 -1936 2014 -135 19 -358 25 -480 15z m-325 -1348 c69 -34 99 -121 69
-199 -5 -15 -162 -180 -347 -366 l-337 -337 332 -333 c182 -182 338 -346 347
-364 34 -69 10 -152 -56 -194 -43 -26 -133 -23 -169 7 -13 11 -200 197 -416
414 -344 348 -392 400 -398 433 -17 88 -15 89 418 526 221 222 416 409 432
417 41 18 84 17 125 -4z m1166 -14 c19 -14 207 -201 419 -415 416 -423 417
-424 394 -506 -15 -55 -71 -117 -465 -509 -384 -382 -383 -381 -465 -364 -91
18 -144 122 -106 208 7 15 163 179 346 363 l335 335 -337 338 c-389 391 -395
399 -346 499 40 83 146 107 225 51z"/>
</g>
</svg>
